<?xml version="1.0" encoding="UTF-8"?>
<svg xmlns="http://www.w3.org/2000/svg" version="1.1" viewBox="0 0 200 200">
  <defs>
    <style>
      .cls-1 {
        fill: #ee1c4e;
      }
    </style>
  </defs>
  <!-- Generator: Adobe Illustrator 28.6.0, SVG Export Plug-In . SVG Version: 1.2.0 Build 709)  -->
  <g>
    <g id="Layer_1">
      <g>
        <path class="cls-1" d="M50.6,127.3c-2.3,1.2-6.9,2.3-12.8,2.3-13.7,0-24-8.6-24-24.6s10.3-25.5,25.3-25.5,9.9,1.3,11.5,2.2l-1.5,5.1c-2.4-1.2-5.8-2-9.8-2-11.4,0-18.9,7.3-18.9,20s6.8,19.5,18.6,19.5,7.7-.8,10.2-2l1.3,5Z"/>
        <path class="cls-1" d="M98.4,104.1c0,16.7-10.2,25.6-22.5,25.6s-21.8-9.9-21.8-24.6,9.6-25.5,22.5-25.5,21.8,10.2,21.8,24.6ZM60.7,104.9c0,10.4,5.6,19.7,15.5,19.7s15.6-9.1,15.6-20.2-5-19.7-15.5-19.7-15.6,9.6-15.6,20.2Z"/>
        <path class="cls-1" d="M140.4,127.3c-2.3,1.2-6.9,2.3-12.8,2.3-13.7,0-24-8.6-24-24.6s10.3-25.5,25.3-25.5,9.9,1.3,11.5,2.2l-1.5,5.1c-2.4-1.2-5.8-2-9.8-2-11.4,0-18.9,7.3-18.9,20s6.8,19.5,18.6,19.5,7.7-.8,10.2-2l1.3,5Z"/>
        <path class="cls-1" d="M148.3,80.3h6.3v23.4h.2c1.3-1.9,2.6-3.6,3.8-5.2l14.8-18.2h7.8l-17.6,20.6,18.9,27.9h-7.4l-16-23.8-4.6,5.3v18.5h-6.3v-48.5Z"/>
      </g>
    </g>
  </g>
</svg>