<?xml version="1.0" encoding="UTF-8"?>
<svg xmlns="http://www.w3.org/2000/svg" version="1.1" viewBox="0 0 200 200">
  <defs>
    <style>
      .cls-1 {
        fill: #fff;
      }
    </style>
  </defs>
  <!-- Generator: Adobe Illustrator 28.6.0, SVG Export Plug-In . SVG Version: 1.2.0 Build 709)  -->
  <g>
    <g id="Layer_1">
      <g>
        <path class="cls-1" d="M42.6,75.3h6.3v32.5c0,12.9-6.3,16.8-14.7,16.8s-5.1-.5-6.7-1.2l.9-5.1c1.3.5,3.2.9,5.3.9,5.6,0,8.9-2.5,8.9-12v-32Z"/>
        <path class="cls-1" d="M67.1,108.6l-5,15.3h-6.5l16.5-48.5h7.6l16.6,48.5h-6.7l-5.2-15.3h-17.2ZM83,103.7l-4.8-14c-1.1-3.2-1.8-6-2.5-8.9h-.1c-.7,2.9-1.5,5.8-2.4,8.8l-4.8,14h14.6Z"/>
        <path class="cls-1" d="M110.2,123.9l-15.8-48.5h6.8l7.6,23.9c2.1,6.6,3.9,12.5,5.2,18.1h.1c1.4-5.6,3.4-11.7,5.5-18.1l8.2-24h6.7l-17.4,48.5h-6.9Z"/>
        <path class="cls-1" d="M143.5,108.6l-5,15.3h-6.5l16.5-48.5h7.6l16.6,48.5h-6.7l-5.2-15.3h-17.2ZM159.4,103.7l-4.8-14c-1.1-3.2-1.8-6-2.5-8.9h-.1c-.7,2.9-1.5,5.8-2.4,8.8l-4.8,14h14.6Z"/>
      </g>
    </g>
  </g>
</svg>