<?xml version="1.0" encoding="UTF-8"?>
<svg xmlns="http://www.w3.org/2000/svg" version="1.1" viewBox="0 0 66.9 50.9">
  <defs>
    <style>
      .cls-1 {
        fill: #fff;
      }
    </style>
  </defs>
  <!-- Generator: Adobe Illustrator 28.6.0, SVG Export Plug-In . SVG Version: 1.2.0 Build 709)  -->
  <g>
    <g id="Layer_1">
      <g>
        <path class="cls-1" d="M15.3,50.7h-6.6l2.5-11.7H.3l1.3-6.3L13.6.2h12.4l-6.9,32.5h2.9l-1.3,6.1h-2.9l-2.4,11.7ZM7.9,32.6v.2c0,0,4.6,0,4.6,0l5.7-26.6h-.8l-9.5,26.4Z"/>
        <path class="cls-1" d="M33.3,50.7h-9.9l-2.7-3.4L30,3.6l4.1-3.4h9.9l2.7,3.4-9.3,43.6-4,3.4ZM28,44l.5.7h2.2l.8-.7,7.9-37.2-.5-.7h-2.2l-.9.7-7.8,37.2Z"/>
        <path class="cls-1" d="M55.9,50.7h-6.6l2.5-11.7h-10.9l1.3-6.3L54.2.2h12.4l-6.9,32.5h2.9l-1.3,6.1h-2.9l-2.4,11.7ZM48.6,32.6v.2c0,0,4.6,0,4.6,0l5.7-26.6h-.8l-9.5,26.4Z"/>
      </g>
    </g>
  </g>
</svg>