<?xml version="1.0" encoding="UTF-8"?>
<svg xmlns="http://www.w3.org/2000/svg" version="1.1" viewBox="0 0 100 90">
  <defs>
    <style>
      .cls-1 {
        fill: #fff;
      }
    </style>
  </defs>
  <!-- Generator: Adobe Illustrator 28.6.0, SVG Export Plug-In . SVG Version: 1.2.0 Build 709)  -->
  <g>
    <g id="Layer_1">
      <path class="cls-1" d="M88.8,11.2l-7.1,7.1c-.6.6-1.7.2-1.7-.7V2c0-1.1-.9-2-2-2h-6.3c-1.1,0-2.1.4-2.8,1.2l-7.7,7.7c-.8.8-1.2,1.8-1.2,2.8v6.3c0,1.1-.9,2-2,2h-16c-1.1,0-2-.9-2-2v-6.3c0-1.1-.4-2.1-1.2-2.8l-7.7-7.7c-.8-.8-1.8-1.2-2.8-1.2h-6.3c-1.1,0-2,.9-2,2v15.6c0,.9-1.1,1.3-1.7.7l-7.1-7.1c-.8-.8-1.8-1.2-2.8-1.2H2c-1.1,0-2,.9-2,2v16.4c0,1.1.4,2.1,1.2,2.8l7.7,7.7c.8.8,1.2,1.8,1.2,2.8v6.3c0,1.1-.9,2-2,2H2c-1.1,0-2,.9-2,2v6.3c0,1.1.4,2.1,1.2,2.8l17.7,17.7c.8.8,1.8,1.2,2.8,1.2h6.7c1.1,0,2.1.4,2.8,1.2l7.7,7.7c.8.8,1.8,1.2,2.8,1.2h16.7c1.1,0,2.1-.4,2.8-1.2l7.7-7.7c.8-.8,1.8-1.2,2.8-1.2h6.7c1.1,0,2.1-.4,2.8-1.2l17.7-17.7c.8-.8,1.2-1.8,1.2-2.8v-6.3c0-1.1-.9-2-2-2h-6c-1.1,0-2-.9-2-2v-6.3c0-1.1.4-2.1,1.2-2.8l7.7-7.7c.8-.8,1.2-1.8,1.2-2.8V12c0-1.1-.9-2-2-2h-6.4c-1.1,0-2.1.4-2.8,1.2ZM40,58c0,1.1-.9,2-2,2h-6c-1.1,0-2-.9-2-2v-16c0-1.1.9-2,2-2h6c1.1,0,2,.9,2,2v16ZM70,58c0,1.1-.9,2-2,2h-6c-1.1,0-2-.9-2-2v-16c0-1.1.9-2,2-2h6c1.1,0,2,.9,2,2v16Z"/>
    </g>
  </g>
</svg>