<?xml version="1.0" encoding="UTF-8"?>
<svg xmlns="http://www.w3.org/2000/svg" version="1.1" viewBox="0 0 237.6 50.4">
  <defs>
    <style>
      .cls-1 {
        fill: #fff;
      }
    </style>
  </defs>
  <!-- Generator: Adobe Illustrator 28.6.0, SVG Export Plug-In . SVG Version: 1.2.0 Build 709)  -->
  <g>
    <g id="Layer_1">
      <g>
        <path class="cls-1" d="M6.6,50.4H0V0h14.4l3.4,3.4v20.2l-2.8,3v.2l2.8,3v20.5h-6.6v-19.9l-.6-.7h-3.9v20.7ZM6.6,5.9v17.8h3.9l.6-.6V6.6l-.6-.7h-3.9Z"/>
        <path class="cls-1" d="M34.7,50.4h-10.9l-3.4-3.4V3.4l3.4-3.4h10.9l3.4,3.4v43.6l-3.4,3.4ZM26.9,43.8l.7.7h3.2l.7-.7V6.6l-.7-.7h-3.2l-.7.7v37.2Z"/>
        <path class="cls-1" d="M55.2,50.4h-14.4V0h14.2l3.4,3.4v18.2l-3,3.2v.2l3.2,3.3v18.6l-3.4,3.4ZM47.5,5.9v16.1h3.8l.6-.6V6.6l-.6-.7h-3.8ZM47.5,27.9v16.6h3.9l.6-.7v-15.1l-.6-.7h-3.9Z"/>
        <path class="cls-1" d="M77.2,50.4h-15.9V0h15.8v6h-9.2v16.1h7.6v6h-7.6v16.1h9.3v6Z"/>
        <path class="cls-1" d="M86.3,50.4h-6.6V0h14.4l3.4,3.4v21.2l-2.8,3v.2l2.8,3v19.5h-6.6v-18.9l-.6-.7h-3.9v19.7ZM86.3,5.9v18.8h3.9l.6-.6V6.6l-.6-.7h-3.9Z"/>
        <path class="cls-1" d="M111.6,50.4h-6.6V6h-5.4V0h17.3v6h-5.4v44.4Z"/>
        <path class="cls-1" d="M141.1,50.4h-10.9l-3.4-3.4V3.4l3.4-3.4h10.9l3.4,3.4v14.2h-6.6V6.6l-.7-.7h-3.2l-.7.7v37.2l.7.7h3.4l.6-.7v-14h-1.9v-6.2h8.3v23.5l-3.4,3.4Z"/>
        <path class="cls-1" d="M153.8,50.4h-6.6V0h14.4l3.4,3.4v21.2l-2.8,3v.2l2.8,3v19.5h-6.6v-18.9l-.6-.7h-3.9v19.7ZM153.8,5.9v18.8h3.9l.6-.6V6.6l-.6-.7h-3.9Z"/>
        <path class="cls-1" d="M186.6,50.4h-6.6l-.6-13.6h-5l-.6,13.6h-6.6l3-50.4h13.4l3,50.4ZM175.7,6l-1.1,24.6h4.5l-1.1-24.6h-2.3Z"/>
        <path class="cls-1" d="M203,50.4h-10.9l-3.4-3.4V3.4l3.4-3.4h10.9l3.4,3.4v14.2h-6.6V6.6l-.7-.7h-3.2l-.7.7v37.2l.7.7h3.2l.7-.7v-10.9h6.6v14.2l-3.4,3.4Z"/>
        <path class="cls-1" d="M215.8,50.4h-6.6V0h6.6v50.4Z"/>
        <path class="cls-1" d="M237.6,50.4h-6.6l-.6-13.6h-5l-.6,13.6h-6.6l3-50.4h13.4l3,50.4ZM226.7,6l-1.1,24.6h4.5l-1.1-24.6h-2.3Z"/>
      </g>
    </g>
  </g>
</svg>