<?xml version="1.0" encoding="UTF-8"?>
<svg xmlns="http://www.w3.org/2000/svg" version="1.1" viewBox="0 0 468.7 105">
  <defs>
    <style>
      .cls-1 {
        fill: #fff;
      }
    </style>
  </defs>
  <!-- Generator: Adobe Illustrator 28.6.0, SVG Export Plug-In . SVG Version: 1.2.0 Build 709)  -->
  <g>
    <g id="Layer_1">
      <g>
        <path class="cls-1" d="M17.1,105H0V0h31.6l8.1,8.1v39.1l-6.9,7.5v.4l6.9,7.8v42.1h-17v-41.5l-1-1.1h-4.6v42.6ZM17.1,15.2v32.1h4.6l1-1v-30.1l-1-1h-4.6Z"/>
        <path class="cls-1" d="M73.5,105h-21.4l-7.4-7.3V30.9l7.4-7.4h21.4l7.4,7.4v66.8l-7.4,7.3ZM60.3,90.9l1,1h2.8l1-1v-53.2l-1-1.1h-2.8l-1,1.1v53.2Z"/>
        <path class="cls-1" d="M99.8,105h-14V0s15.7,0,15.7,0v28.5h.3l4.5-5h8.2l7.5,7.4v66.8l-7.5,7.3h-8.2l-4.5-5h-.3l-1.8,5ZM101.6,89.7l1.5,1.5h2.2l1-1v-51.8l-1-1.1h-2.2l-1.5,1.7v50.7Z"/>
        <path class="cls-1" d="M163.2,30.9v40.2h-20.5v19.8l1,1h2.8l1-1v-12.3h15.6v19.1l-7.4,7.3h-21.4l-7.4-7.3V30.9l7.4-7.4h21.4l7.4,7.4ZM146.5,36.6h-2.8l-1,1.1v20.1h4.9v-20.1l-1-1.1Z"/>
        <path class="cls-1" d="M183.9,105h-15.8V23.5h14l1.8,5h.3l4.4-5h6.6v15.5h-9.9l-1.5,1.5v64.5Z"/>
        <path class="cls-1" d="M231,23.5v15.5h-9v51.3l1,1.1h7.9v13.7h-17.2l-7.5-7.3v-58.7h-6v-15.5h6V0s15.7,0,15.7,0v23.5h9Z"/>
        <path class="cls-1" d="M284.4,105h-23.2l-8.2-8.1V8.1l8.2-8.1h23.2l8.2,8.1v30.2h-16.9v-22.1l-1.2-1h-3.4l-1.2,1v72.6l1.2,1.1h4.2l1-1.1v-25.5h-3.7v-15.9h20v49.5l-8.2,8.1Z"/>
        <path class="cls-1" d="M313.4,105h-15.8V23.5h14l1.8,5h.3l3.5-5h7.6v15.5h-9.8l-1.5,1.5v64.5Z"/>
        <path class="cls-1" d="M337.4,23.5h21.1l7.3,7.4v74.1h-13.8l-1.8-5h-.5l-4.5,5h-8.2l-7.3-7.3v-32.2l7.2-7.4h13.3v-19.6l-1.1-1.1h-2.8l-1,1.1v12.4h-15.3v-19.9l7.3-7.4ZM346.4,91.2h2.4l1.5-1.5v-18.4h-3.9l-1,1v17.9l1,1Z"/>
        <path class="cls-1" d="M399.6,105h-21.4l-7.4-7.3V30.9l7.4-7.4h21.4l7.4,7.4v20.8h-15.6v-14.1l-1-1.1h-2.8l-1,1.1v53.2l1,1h2.8l1-1v-14.1h15.6v20.9l-7.4,7.3Z"/>
        <rect class="cls-1" x="412" width="15.6" height="17.8"/>
        <rect class="cls-1" x="412" y="23.5" width="15.6" height="81.5"/>
        <path class="cls-1" d="M440.2,23.5h21.1l7.3,7.4v74.1h-13.8l-1.8-5h-.5l-4.5,5h-8.2l-7.3-7.3v-32.2l7.2-7.4h13.3v-19.6l-1.1-1.1h-2.8l-1,1.1v12.4h-15.3v-19.9l7.3-7.4ZM449.2,91.2h2.4l1.5-1.5v-18.4h-3.9l-1,1v17.9l1,1Z"/>
      </g>
    </g>
  </g>
</svg>