<?xml version="1.0" encoding="UTF-8"?>
<svg xmlns="http://www.w3.org/2000/svg" version="1.1" xmlns:xlink="http://www.w3.org/1999/xlink" viewBox="0 0 90 90">
  <defs>
    <style>
      .cls-1 {
        fill: url(#linear-gradient-2);
      }

      .cls-2 {
        fill: url(#linear-gradient);
      }
    </style>
    <linearGradient id="linear-gradient" x1="10" y1="87.1" x2="80" y2="17.1" gradientUnits="userSpaceOnUse">
      <stop offset="0" stop-color="#9133ff"/>
      <stop offset=".5" stop-color="#722ad8"/>
      <stop offset="1" stop-color="#9133ff"/>
    </linearGradient>
    <linearGradient id="linear-gradient-2" x1="10" y1="87.1" x2="80" y2="17.1" gradientUnits="userSpaceOnUse">
      <stop offset="0" stop-color="#722ad8"/>
      <stop offset=".5" stop-color="#9133ff"/>
      <stop offset="1" stop-color="#722ad8"/>
    </linearGradient>
  </defs>
  <!-- Generator: Adobe Illustrator 28.6.0, SVG Export Plug-In . SVG Version: 1.2.0 Build 709)  -->
  <g>
    <g id="Layer_1">
      <g>
        <path class="cls-2" d="M80.1,87h-23.8l-2.4-17.3h-17.9l-2.4,17.3H9.9L24.2,3h41.8l14.2,84ZM42.8,21.7l-3.8,27.8h12.1l-3.8-27.8h-4.4Z"/>
        <path class="cls-1" d="M63.4,6l13.1,78h-17.6l-2-14.7-.4-2.6h-23.1l-.4,2.6-2,14.7H13.5L26.7,6h36.7M35.5,52.6h19l-.5-3.4-3.8-27.8-.4-2.6h-9.7l-.4,2.6-3.8,27.8-.5,3.4M65.9,3H24.2l-14.3,84h23.8l2.4-17.3h17.9l2.4,17.3h23.8L65.9,3h0ZM38.9,49.6l3.8-27.8h4.4l3.8,27.8h-12.1Z"/>
      </g>
    </g>
  </g>
</svg>