<?xml version="1.0" encoding="UTF-8"?>
<svg xmlns="http://www.w3.org/2000/svg" version="1.1" xmlns:xlink="http://www.w3.org/1999/xlink" viewBox="0 0 100 100">
  <defs>
    <style>
      .cls-1 {
        fill: url(#linear-gradient-2);
      }

      .cls-2 {
        fill: url(#linear-gradient);
      }
    </style>
    <linearGradient id="linear-gradient" x1="16.8" y1="87.2" x2="83.2" y2="20.8" gradientUnits="userSpaceOnUse">
      <stop offset="0" stop-color="#8e2fea"/>
      <stop offset=".5" stop-color="#6930d6"/>
      <stop offset="1" stop-color="#8e2fea"/>
    </linearGradient>
    <linearGradient id="linear-gradient-2" x1="16.8" y1="87.2" x2="83.2" y2="20.7" gradientUnits="userSpaceOnUse">
      <stop offset="0" stop-color="#6930d6"/>
      <stop offset=".5" stop-color="#8e2fea"/>
      <stop offset="1" stop-color="#6930d6"/>
    </linearGradient>
  </defs>
  <!-- Generator: Adobe Illustrator 28.6.0, SVG Export Plug-In . SVG Version: 1.2.0 Build 709)  -->
  <g>
    <g id="Layer_1">
      <g>
        <path class="cls-2" d="M78.4,92h-23.8l-.7-16.9h-7.8l-.7,16.9h-23.8L29.5,8h40.9l7.9,84ZM48.4,26.1l-1.3,28.8h5.9l-1.3-28.8h-3.2Z"/>
        <path class="cls-1" d="M68.2,10.5l7.4,79h-18.6l-.6-14.5v-2.4h-12.7v2.4c-.1,0-.7,14.5-.7,14.5h-18.6L31.8,10.5h36.4M44.4,57.4h11.1v-2.6c-.1,0-1.4-28.8-1.4-28.8v-2.4h-8.1v2.4c-.1,0-1.4,28.8-1.4,28.8v2.6M70.5,8H29.5l-7.9,84h23.8l.7-16.9h7.8l.7,16.9h23.8l-7.9-84h0ZM47.1,54.9l1.3-28.8h3.2l1.3,28.8h-5.9Z"/>
      </g>
    </g>
  </g>
</svg>