<?xml version="1.0" encoding="UTF-8"?>
<svg xmlns="http://www.w3.org/2000/svg" version="1.1" xmlns:xlink="http://www.w3.org/1999/xlink" viewBox="0 0 100 100">
  <defs>
    <style>
      .cls-1 {
        fill: url(#linear-gradient-2);
      }

      .cls-2 {
        fill: url(#linear-gradient);
      }
    </style>
    <linearGradient id="linear-gradient" x1="13.9" y1="81.4" x2="76.5" y2="18.8" gradientUnits="userSpaceOnUse">
      <stop offset="0" stop-color="#398aff"/>
      <stop offset=".5" stop-color="#2864ea"/>
      <stop offset="1" stop-color="#398aff"/>
    </linearGradient>
    <linearGradient id="linear-gradient-2" x1="13.9" y1="81.4" x2="76.5" y2="18.8" gradientUnits="userSpaceOnUse">
      <stop offset="0" stop-color="#2864ea"/>
      <stop offset=".5" stop-color="#398aff"/>
      <stop offset="1" stop-color="#2864ea"/>
    </linearGradient>
  </defs>
  <!-- Generator: Adobe Illustrator 28.6.0, SVG Export Plug-In . SVG Version: 1.2.0 Build 709)  -->
  <g>
    <g id="Layer_1">
      <g>
        <path class="cls-2" d="M66,92H24.6V8h41.2l9.5,9.5v24.4l-7,7.7v.5l7.2,7.6v25l-9.5,9.5ZM47.8,25.2v16.7h3.4l1-1v-14.8l-1-1h-3.4ZM47.8,57.7v17.2h3.4l1-1v-15.2l-1-1h-3.4Z"/>
        <path class="cls-1" d="M64.7,10.5l8,8v22.4l-6.3,7-.6.7v2.4l.7.7,6.5,6.8v22.9l-8,8H27.1V10.5h37.6M45.3,44.3h6.9l.7-.7,1-1,.7-.7v-16.8l-.7-.7-1-1-.7-.7h-6.9v21.7M45.3,77.3h6.9l.7-.7,1-1,.7-.7v-17.3l-.7-.7-1-1-.7-.7h-6.9v22.2M65.7,8H24.6v84h41.4l9.5-9.5v-25l-7.2-7.6v-.5l7-7.7v-24.4l-9.5-9.5h0ZM47.8,41.8v-16.7h3.4l1,1v14.8l-1,1h-3.4ZM47.8,74.8v-17.2h3.4l1,1v15.2l-1,1h-3.4Z"/>
      </g>
    </g>
  </g>
</svg>