<?xml version="1.0" encoding="UTF-8"?>
<svg xmlns="http://www.w3.org/2000/svg" version="1.1" xmlns:xlink="http://www.w3.org/1999/xlink" viewBox="0 0 100 100">
  <defs>
    <style>
      .cls-1 {
        fill: url(#linear-gradient-2);
      }

      .cls-2 {
        fill: url(#linear-gradient);
      }
    </style>
    <linearGradient id="linear-gradient" x1="13.9" y1="81.4" x2="76.6" y2="18.6" gradientUnits="userSpaceOnUse">
      <stop offset="0" stop-color="#ea722f"/>
      <stop offset=".5" stop-color="#e04622"/>
      <stop offset="1" stop-color="#ea722f"/>
    </linearGradient>
    <linearGradient id="linear-gradient-2" x1="13.9" y1="81.4" x2="76.6" y2="18.6" gradientUnits="userSpaceOnUse">
      <stop offset="0" stop-color="#e04622"/>
      <stop offset=".5" stop-color="#ea722f"/>
      <stop offset="1" stop-color="#e04622"/>
    </linearGradient>
  </defs>
  <!-- Generator: Adobe Illustrator 28.6.0, SVG Export Plug-In . SVG Version: 1.2.0 Build 709)  -->
  <g>
    <g id="Layer_1">
      <g>
        <path class="cls-2" d="M66,92H24.6V8h41.4l9.5,9.5v65l-9.5,9.5ZM47.8,27.3v45.4h3.4l1-1V28.3l-1-1h-3.4Z"/>
        <path class="cls-1" d="M64.9,10.5l8,8v63l-8,8H27.1V10.5h37.9M45.3,75.2h6.9l.7-.7,1-1,.7-.7V27.2l-.7-.7-1-1-.7-.7h-6.9v50.4M66,8H24.6v84h41.4l9.5-9.5V17.5l-9.5-9.5h0ZM47.8,72.7V27.3h3.4l1,1v43.4l-1,1h-3.4Z"/>
      </g>
    </g>
  </g>
</svg>