<?xml version="1.0" encoding="UTF-8"?>
<svg xmlns="http://www.w3.org/2000/svg" version="1.1" xmlns:xlink="http://www.w3.org/1999/xlink" viewBox="0 0 90 90">
  <defs>
    <style>
      .cls-1 {
        fill: url(#linear-gradient-2);
      }

      .cls-2 {
        fill: url(#linear-gradient);
      }
    </style>
    <linearGradient id="linear-gradient" x1="5.8" y1="79.1" x2="73.9" y2="10.9" gradientUnits="userSpaceOnUse">
      <stop offset="0" stop-color="#abdbff"/>
      <stop offset=".5" stop-color="#7db2d3"/>
      <stop offset="1" stop-color="#abdbff"/>
    </linearGradient>
    <linearGradient id="linear-gradient-2" x1="5.8" y1="79.1" x2="73.9" y2="10.9" gradientUnits="userSpaceOnUse">
      <stop offset="0" stop-color="#7db2d3"/>
      <stop offset=".5" stop-color="#abdbff"/>
      <stop offset="1" stop-color="#7db2d3"/>
    </linearGradient>
  </defs>
  <!-- Generator: Adobe Illustrator 28.6.0, SVG Export Plug-In . SVG Version: 1.2.0 Build 709)  -->
  <g>
    <g id="Layer_1">
      <g>
        <path class="cls-2" d="M65.9,87H13.7V3h52.2l10.3,10.3v63.4l-10.3,10.3ZM36.8,22.8v44.4h14.8l1.7-1.7V24.5l-1.7-1.7h-14.8Z"/>
        <path class="cls-1" d="M64.7,6l8.6,8.6v60.9l-8.6,8.6H16.7V6h48M33.8,70.2h19l.9-.9,1.7-1.7.9-.9V23.2l-.9-.9-1.7-1.7-.9-.9h-19v50.4M65.9,3H13.7v84h52.2l10.3-10.3V13.3l-10.3-10.3h0ZM36.8,67.2V22.8h14.8l1.7,1.7v41l-1.7,1.7h-14.8Z"/>
      </g>
    </g>
  </g>
</svg>