<?xml version="1.0" encoding="UTF-8"?>
<svg xmlns="http://www.w3.org/2000/svg" version="1.1" xmlns:xlink="http://www.w3.org/1999/xlink" viewBox="0 0 90 90">
  <defs>
    <style>
      .cls-1 {
        fill: url(#linear-gradient-2);
      }

      .cls-2 {
        fill: url(#linear-gradient);
      }
    </style>
    <linearGradient id="linear-gradient" x1="13.5" y1="76.5" x2="76.5" y2="13.5" gradientUnits="userSpaceOnUse">
      <stop offset="0" stop-color="#ef3c67"/>
      <stop offset=".5" stop-color="#ce2556"/>
      <stop offset="1" stop-color="#ef3c67"/>
    </linearGradient>
    <linearGradient id="linear-gradient-2" x1="13.5" y1="76.5" x2="76.5" y2="13.5" gradientUnits="userSpaceOnUse">
      <stop offset="0" stop-color="#ce2556"/>
      <stop offset=".5" stop-color="#ef3c67"/>
      <stop offset="1" stop-color="#ce2556"/>
    </linearGradient>
  </defs>
  <!-- Generator: Adobe Illustrator 28.6.0, SVG Export Plug-In . SVG Version: 1.2.0 Build 709)  -->
  <g>
    <g id="Layer_1">
      <g>
        <path class="cls-2" d="M65.9,87H24.1l-10.3-10.3v-17h22.9v8.4l1.6,1.7h13.4l1.7-1.7v-7.8l-1.1-1.4-33.6-13.7-4.9-5.9V13.3L24.1,3h41.9l10.3,10.3v16.4h-22.9v-7.8l-1.6-1.7h-13.4l-1.6,1.7v7.6l1.1,1.3,33.5,13.7,4.9,5.9v26.3l-10.3,10.3Z"/>
        <path class="cls-1" d="M64.7,6l8.6,8.6v12.2h-16.9v-6l-.8-.9-1.6-1.7-.9-1h-16.1l-.9,1-1.6,1.7-.8.9v9.8l.7.8,1.1,1.3.5.6.7.3,32.8,13.4,3.7,4.5v23.9l-8.6,8.6H25.3l-8.6-8.6v-12.8h16.9v6.6l.8.9,1.6,1.7.9,1h16l.9-.9,1.7-1.7.9-.9v-10l-.6-.8-1.1-1.4-.5-.7-.8-.3-32.9-13.4-3.7-4.5V14.6l8.6-8.6h39.4M65.9,3H24.1l-10.3,10.3v25.9l4.9,5.9,33.6,13.7,1.1,1.4v7.8l-1.7,1.7h-13.4l-1.6-1.7v-8.4H13.7v17l10.3,10.3h41.9l10.3-10.3v-26.3l-4.9-5.9-33.5-13.7-1.1-1.3v-7.6l1.6-1.7h13.4l1.6,1.7v7.8h22.9V13.3l-10.3-10.3h0Z"/>
      </g>
    </g>
  </g>
</svg>