<?xml version="1.0" encoding="UTF-8"?>
<svg xmlns="http://www.w3.org/2000/svg" version="1.1" xmlns:xlink="http://www.w3.org/1999/xlink" viewBox="0 0 100 100">
  <defs>
    <style>
      .cls-1 {
        fill: url(#linear-gradient-2);
      }

      .cls-2 {
        fill: url(#linear-gradient);
      }
    </style>
    <linearGradient id="linear-gradient" x1="21" y1="79" x2="79" y2="21" gradientUnits="userSpaceOnUse">
      <stop offset="0" stop-color="#ed2b50"/>
      <stop offset=".5" stop-color="#c41c4c"/>
      <stop offset="1" stop-color="#ed2b50"/>
    </linearGradient>
    <linearGradient id="linear-gradient-2" x1="21" y1="79" x2="79" y2="21" gradientUnits="userSpaceOnUse">
      <stop offset="0" stop-color="#c41c4c"/>
      <stop offset=".5" stop-color="#ed2b50"/>
      <stop offset="1" stop-color="#c41c4c"/>
    </linearGradient>
  </defs>
  <!-- Generator: Adobe Illustrator 28.6.0, SVG Export Plug-In . SVG Version: 1.2.0 Build 709)  -->
  <g>
    <g id="Layer_1">
      <g>
        <path class="cls-2" d="M66,92h-31.9l-9.5-9.5v-18.5h23v10.4l1,1h2.8l1-1v-10.3l-.6-1-22.3-12.6-4.8-6.7v-26.4l9.5-9.5h31.9l9.5,9.5v17.9h-23v-9.8l-1-1h-2.8l-1,1v10.1l.6,1.1,22.3,12.6,4.8,6.8v26.4l-9.5,9.5Z"/>
        <path class="cls-1" d="M64.9,10.5l8,8v14.3h-18v-8.4l-.7-.7-1-1-.7-.7h-4.8l-.7.7-1,1-.7.7v11.8l.3.6.6,1.1.3.6.6.3,21.8,12.3,4,5.7v24.6l-8,8h-29.8l-8-8v-14.9h18v9l.7.7,1,1,.7.7h4.8l.7-.7,1-1,.7-.7v-12.1l-.4-.6-.6-1-.3-.5-.6-.3-21.8-12.3-4-5.6v-24.6l8-8h29.8M66,8h-31.9l-9.5,9.5v26.4l4.8,6.7,22.3,12.6.6,1v10.3l-1,1h-2.8l-1-1v-10.4h-23v18.5l9.5,9.5h31.9l9.5-9.5v-26.4l-4.8-6.8-22.3-12.6-.6-1.1v-10.1l1-1h2.8l1,1v9.8h23v-17.9l-9.5-9.5h0Z"/>
      </g>
    </g>
  </g>
</svg>