<?xml version="1.0" encoding="UTF-8"?>
<svg xmlns="http://www.w3.org/2000/svg" version="1.1" xmlns:xlink="http://www.w3.org/1999/xlink" viewBox="0 0 100 100">
  <defs>
    <style>
      .cls-1 {
        fill: url(#linear-gradient-2);
      }

      .cls-2 {
        fill: url(#linear-gradient-4);
      }

      .cls-3 {
        fill: url(#linear-gradient-3);
      }

      .cls-4 {
        fill: url(#linear-gradient);
      }
    </style>
    <linearGradient id="linear-gradient" x1="0" y1="79" x2="58" y2="21" gradientUnits="userSpaceOnUse">
      <stop offset="0" stop-color="#00bdff"/>
      <stop offset=".5" stop-color="#66dfff"/>
      <stop offset="1" stop-color="#00bdff"/>
    </linearGradient>
    <linearGradient id="linear-gradient-2" x1="0" y1="79" x2="58" y2="21" gradientUnits="userSpaceOnUse">
      <stop offset="0" stop-color="#66dfff"/>
      <stop offset=".5" stop-color="#00bdff"/>
      <stop offset="1" stop-color="#66dfff"/>
    </linearGradient>
    <linearGradient id="linear-gradient-3" x1="67.3" y1="61.6" x2="90.4" y2="38.4" xlink:href="#linear-gradient"/>
    <linearGradient id="linear-gradient-4" x1="67.3" y1="61.6" x2="90.4" y2="38.4" xlink:href="#linear-gradient-2"/>
  </defs>
  <!-- Generator: Adobe Illustrator 28.6.0, SVG Export Plug-In . SVG Version: 1.2.0 Build 709)  -->
  <g>
    <g id="Layer_1">
      <g>
        <polygon class="cls-4" points="45 92 13 92 3.6 82.5 3.6 64 26.6 64 26.6 74.5 27.6 75.4 30.3 75.4 31.3 74.5 31.3 64.2 30.7 63.2 8.4 50.6 3.6 43.9 3.6 17.5 13 8 45 8 54.4 17.5 54.4 35.4 31.4 35.4 31.4 25.5 30.4 24.6 27.7 24.6 26.7 25.5 26.7 35.6 27.3 36.7 49.6 49.3 54.4 56.1 54.4 82.5 45 92"/>
        <path class="cls-1" d="M43.9,10.5l8,8v14.3h-18v-8.4l-.7-.7-1-1-.7-.7h-4.8l-.7.7-1,1-.7.7v11.8l.3.6.6,1.1.3.6.6.3,21.8,12.3,4,5.7v24.6l-8,8H14.1l-8-8v-14.9h18v9l.7.7,1,1,.7.7h4.8l.7-.7,1-1,.7-.7v-12.1l-.4-.6-.6-1-.3-.5-.6-.3-21.8-12.3-4-5.6v-24.6l8-8h29.8M45,8H13L3.6,17.5v26.4l4.8,6.7,22.3,12.6.6,1v10.3l-1,1h-2.8l-1-1v-10.4H3.6v18.5l9.5,9.5h31.9l9.5-9.5v-26.4l-4.8-6.8-22.3-12.6-.6-1.1v-10.1l1-1h2.8l1,1v9.8h23v-17.9l-9.5-9.5h0Z"/>
      </g>
      <g>
        <polygon class="cls-3" points="84.4 67.6 73.3 67.6 73.3 55.6 61.3 55.6 61.3 44.5 73.3 44.5 73.3 32.4 84.4 32.4 84.4 44.5 96.4 44.5 96.4 55.6 84.4 55.6 84.4 67.6"/>
        <path class="cls-2" d="M81.9,34.9v12.1h12v6h-12v12h-6.2v-12h-12v-6h12v-12.1h6.2M84.4,32.4h-11.2v12.1h-12v11h12v12h11.2v-12h12v-11h-12v-12.1h0Z"/>
      </g>
    </g>
  </g>
</svg>